<svg width="960" height="640" viewBox="0 0 960 640" fill="none" xmlns="http://www.w3.org/2000/svg">
<path d="M851.832 21.1518H247.519C297.041 96.1979 282.413 108.282 241.032 108.282L187.694 21.1518H111.927L344.655 401.301C334.734 399.987 324.6 399.181 314.255 399.181C225.599 399.181 156.149 447.431 156.149 508.994C156.149 570.558 225.599 618.808 314.255 618.808C402.911 618.808 472.403 570.6 472.403 508.994C472.403 493.9 468.163 479.315 459.811 465.62L393.923 357.969C393.923 357.969 439.756 373.063 471.894 363.057L451.585 336.897C451.585 336.897 527.267 343.172 577.892 332.954L553.809 307.43C553.809 307.43 666.506 306.327 708.565 236.708H689.274C689.274 236.708 742.4 229.288 769.238 171.88H749.608C749.608 171.88 795.314 150.808 807.737 102.897H786.495C786.495 102.897 833.939 71.3945 851.874 21.1094L851.832 21.1518ZM760.928 110.783H796.331C790.268 145.211 728.281 175.611 728.281 175.611H757.324C740.577 220.469 662.223 240.439 662.223 240.439H693.853C693.853 240.439 658.916 299.925 542.87 299.925C540.369 299.925 538.037 299.925 535.832 299.84L562.671 328.29C491.144 334.522 436.364 327.951 436.364 327.951C443.106 339.568 458.2 358.266 458.2 358.266C424.916 361.785 376.751 344.953 376.751 344.953L453.112 469.733C460.701 482.198 464.559 495.384 464.559 509.037C464.559 565.258 397.145 611.006 314.255 611.006C231.365 611.006 163.993 565.258 163.993 509.037C163.993 452.816 231.407 407.067 314.255 407.067C330.197 407.067 345.588 408.848 360.428 412.07L125.961 29.038H183.327L236.495 115.913C302.256 119.517 295.769 81.1463 261.511 29.038H839.239C822.746 75.9312 760.928 110.826 760.928 110.826V110.783Z" fill="white"/>
<path d="M839.239 29.0395H261.511C295.727 81.1478 302.256 119.519 236.496 115.915L183.285 29.0395H125.919L360.385 412.072C345.546 408.849 330.113 407.069 314.213 407.069C231.365 407.069 163.951 452.817 163.951 509.038C163.951 565.259 231.365 611.008 314.213 611.008C397.061 611.008 464.517 565.259 464.517 509.038C464.517 495.428 460.659 482.2 453.07 469.734L376.709 344.954C376.709 344.954 424.832 361.787 458.157 358.267C458.157 358.267 443.063 339.569 436.322 327.952C436.322 327.952 491.101 334.524 562.628 328.291L535.79 299.842C537.995 299.884 540.327 299.926 542.828 299.926C658.874 299.926 693.811 240.441 693.811 240.441H662.181C662.181 240.441 740.535 220.471 757.282 175.613H728.239C728.239 175.613 790.226 145.213 796.289 110.785H760.886C760.886 110.785 822.704 75.8903 839.197 28.9971L839.239 29.0395ZM741.764 112.311H306.581L310.736 119.137H784.29C774.623 144.704 707.378 177.139 707.378 177.139H346.224L350.379 183.965H742.739C719.42 223.524 622.877 241.967 622.877 241.967H385.91L390.065 248.793H675.664C675.664 248.793 638.862 291.616 542.786 291.616C523.749 291.616 514.93 289.92 514.93 289.92L544.609 321.38C489.999 325.663 421.864 318.285 421.864 318.285C429.072 334.694 441.028 349.957 441.028 349.957C414.783 349.957 357.884 330.199 357.884 330.199L445.947 474.059C452.518 484.871 456.165 496.658 456.165 509.038C456.165 560.765 392.609 602.655 314.213 602.655C235.817 602.655 172.261 560.722 172.261 509.038C172.261 457.354 235.817 415.379 314.213 415.379C337.278 415.379 359.071 419.025 378.363 425.47L140.801 37.3497H178.663L231.705 123.971C276.351 128.465 321.93 111.717 276.393 37.3497H825.884C805.193 79.3246 741.806 112.311 741.806 112.311H741.764Z" fill="#FFB81C"/>
<path d="M825.841 37.3486H276.351C321.887 111.716 276.308 128.464 231.662 123.97L178.664 37.3486H140.801L378.405 425.469C359.156 419.024 337.363 415.378 314.255 415.378C235.86 415.378 172.304 457.31 172.304 509.037C172.304 560.764 235.86 602.654 314.255 602.654C392.651 602.654 456.207 560.721 456.207 509.037C456.207 496.657 452.561 484.87 445.989 474.058L357.926 330.198C357.926 330.198 414.826 349.956 441.071 349.956C441.071 349.956 429.114 334.693 421.906 318.284C421.906 318.284 490.084 325.619 544.651 321.379L514.972 289.919C514.972 289.919 523.833 291.615 542.828 291.615C638.862 291.615 675.707 248.792 675.707 248.792H390.107L385.952 241.966H622.92C622.92 241.966 719.505 223.522 742.782 183.964H350.422L346.267 177.138H707.421C707.421 177.138 774.666 144.703 784.333 119.136H310.736L306.581 112.31H741.764C741.764 112.31 805.193 79.3236 825.841 37.3486Z" fill="#004986"/>
<path d="M867.689 10H226.744C269.185 76.2272 283.304 98.0202 247.223 96.9603L193.969 10H92L323.626 388.368C320.488 388.241 317.35 388.029 314.255 388.029C219.324 388.029 144.956 441.155 144.956 509.036C144.956 576.917 219.324 630 314.255 630C409.187 630 483.554 576.874 483.554 509.036C483.554 491.864 478.763 475.329 469.351 459.853L417.454 375.097C417.454 375.097 459.217 383.492 490.593 368.992L475.456 349.488C475.456 349.488 539.139 355.382 597.862 337.914L577.977 316.799C577.977 316.799 667.311 314.509 729.214 235.096H723.024C723.024 235.096 769.154 212.837 788.572 163.654H782.552C782.552 163.654 812.104 141.649 822.152 96.4515H813.418C813.418 96.4515 860.354 63.3379 867.689 10ZM786.453 102.939H807.694C795.272 150.849 749.565 171.922 749.565 171.922H769.196C742.358 229.33 689.232 236.75 689.232 236.75H708.523C666.463 306.326 553.767 307.471 553.767 307.471L577.85 332.995C527.225 343.213 451.543 336.938 451.543 336.938L471.852 363.099C439.714 373.105 393.881 358.011 393.881 358.011L459.769 465.662C468.121 479.357 472.361 493.942 472.361 509.036C472.361 570.599 402.912 618.849 314.213 618.849C225.514 618.849 156.107 570.641 156.107 509.036C156.107 447.43 225.557 399.222 314.213 399.222C324.558 399.222 334.692 400.028 344.613 401.342L111.928 21.1509H187.694L241.032 108.281C282.414 108.281 297.041 96.1971 247.519 21.1509H851.832C833.897 71.4361 786.453 102.939 786.453 102.939Z" fill="#041E42"/>
<path d="M444.293 611.685C444.293 619.104 450.314 625.125 457.734 625.125C465.154 625.125 471.174 619.104 471.174 611.685C471.174 604.265 465.154 598.244 457.734 598.244C450.314 598.244 444.293 604.265 444.293 611.685ZM468.334 611.685C468.334 617.536 463.585 622.242 457.776 622.242C451.968 622.242 447.219 617.493 447.219 611.685C447.219 605.876 451.968 601.127 457.776 601.127C463.585 601.127 468.334 605.876 468.334 611.685Z" fill="white"/>
<path d="M452.221 619.358H455.105V613.083H457.182L460.108 619.358H463.288L460.235 612.828C462.016 612.192 463.245 610.496 463.245 608.546C463.245 606.002 461.21 603.967 458.708 603.967H452.221V619.358ZM455.105 606.85H458.708C459.641 606.85 460.404 607.613 460.404 608.546C460.404 609.479 459.641 610.242 458.708 610.242H455.105V606.892V606.85Z" fill="white"/>
</svg>
