<svg width="296" height="97" viewBox="0 0 296 97" fill="none" xmlns="http://www.w3.org/2000/svg">
<path d="M0 48.4374C0 38.8834 2.19677 30.4559 6.59031 23.1548C10.9839 15.8538 17.1557 10.1798 25.1059 6.1329C33.098 2.0443 42.2826 0 52.6597 0C63.0368 0 72.1796 2.0443 80.088 6.1329C88.0382 10.1798 94.1891 15.8746 98.5408 23.2174C102.934 30.5602 105.131 38.9669 105.131 48.4374C105.131 58.0331 102.934 66.5024 98.5408 73.8452C94.1891 81.188 88.0173 86.8828 80.0252 90.9297C72.075 94.9766 62.9532 97 52.6597 97C42.5755 97 33.5164 94.9766 25.4825 90.9297C17.4905 86.8828 11.2349 81.188 6.71584 73.8452C2.23861 66.5024 0 58.0331 0 48.4374ZM78.7699 48.3123C78.7699 42.5966 77.7238 37.4024 75.6317 32.7297C73.5395 28.0153 70.5059 24.2813 66.5308 21.5277C62.5975 18.7325 57.9738 17.3348 52.6597 17.3348C47.3456 17.3348 42.722 18.7325 38.7887 21.5277C34.8554 24.2813 31.8218 28.0153 29.6878 32.7297C27.5956 37.4024 26.5495 42.5966 26.5495 48.3123C26.5495 54.32 27.6165 59.7228 29.7505 64.5206C31.9264 69.2768 34.981 73.0316 38.9142 75.7852C42.8475 78.497 47.3875 79.8529 52.5342 79.8529C57.8483 79.8529 62.4929 78.497 66.468 75.7852C70.4849 73.0316 73.5395 69.2768 75.6317 64.5206C77.7238 59.7228 78.7699 54.32 78.7699 48.3123Z" fill="#1B191C"/>
<path d="M177.648 39.4884V17.5852H162.961V79.853H177.083V95.8736H124.047V79.853H138.42V17.5852H124.047V39.4884H107.979V1.56458H193.59V39.4884H177.648Z" fill="#1B191C"/>
<path d="M234.428 17.5852V38.0491H260.287V17.5852H250.621V1.56458H296V17.5852H284.2V79.853H296V95.8736H250.621V79.853H260.287V54.1949H234.428V79.853H244.344V95.8736H198.714V79.853H210.514V17.5852H198.714V1.56458H244.344V17.5852H234.428Z" fill="#1B191C"/>
</svg>
